<svg width="186" height="39" viewBox="0 0 186 39" fill="none" xmlns="http://www.w3.org/2000/svg">
<g clip-path="url(#clip0_233_1629)">
<path d="M54.5846 24.4037C55.4572 24.4037 56.2448 24.1912 56.9503 23.7633C57.6558 23.3354 58.2139 22.7517 58.6247 22.0121C59.0327 21.2725 59.2395 20.4394 59.2395 19.5156C59.2395 18.5918 59.0355 17.7559 58.6247 17.005C58.2139 16.254 57.6586 15.6675 56.9503 15.2396C56.2448 14.8117 55.4572 14.5992 54.5846 14.5992C53.7119 14.5992 52.9243 14.8117 52.2188 15.2396C51.5134 15.6675 50.9609 16.254 50.5586 17.005C50.1591 17.7531 49.9579 18.5918 49.9579 19.5156C49.9579 20.4394 50.1591 21.2725 50.5586 22.0121C50.9581 22.7517 51.5134 23.3354 52.2188 23.7633C52.9243 24.1912 53.7119 24.4037 54.5846 24.4037ZM70.8358 24.4037C71.7255 24.4037 72.5216 24.194 73.2271 23.7775C73.9325 23.3581 74.4822 22.78 74.8732 22.0376C75.267 21.298 75.4625 20.4564 75.4625 19.5156C75.4625 18.5748 75.267 17.7276 74.8732 16.9795C74.4822 16.2285 73.9325 15.6448 73.2271 15.2282C72.5216 14.8089 71.7255 14.602 70.8358 14.602C69.9462 14.602 69.1501 14.8117 68.4446 15.2282C67.7392 15.6476 67.1867 16.2314 66.7844 16.9795C66.3849 17.7276 66.1837 18.5748 66.1837 19.5156C66.1837 20.4564 66.3849 21.298 66.7844 22.0376C67.1838 22.7772 67.7392 23.3581 68.4446 23.7775C69.1501 24.1969 69.9491 24.4037 70.8358 24.4037ZM70.8358 26.7557C69.4419 26.7557 68.1953 26.4468 67.0988 25.8262C65.9996 25.2085 65.1468 24.3499 64.5376 23.2504C63.9285 22.1509 63.6225 20.9069 63.6225 19.5128C63.6225 18.1186 63.9285 16.8463 64.5376 15.7468C65.1468 14.6473 66.0024 13.7887 67.0988 13.171C68.1953 12.5532 69.4419 12.2415 70.8358 12.2415C72.2298 12.2415 73.4452 12.5504 74.536 13.171C75.6268 13.7887 76.4796 14.6473 77.0972 15.7468C77.7149 16.8434 78.0265 18.0988 78.0265 19.5128C78.0265 20.9268 77.7205 22.1538 77.1114 23.2504C76.5023 24.3499 75.6523 25.2085 74.5615 25.8262C73.4736 26.444 72.2298 26.7557 70.8358 26.7557ZM85.0104 26.7557C83.8261 26.7557 82.7098 26.5715 81.6644 26.2059C80.6189 25.8404 79.8001 25.3615 79.208 24.7664C78.9813 24.5397 78.868 24.2705 78.868 23.956C78.868 23.5366 79.0408 23.1966 79.3921 22.9359C79.7236 22.6922 80.0296 22.5703 80.3073 22.5703C80.6557 22.5703 80.9872 22.7262 81.3017 23.0407C81.6332 23.4063 82.129 23.7236 82.792 23.9957C83.4549 24.2649 84.1604 24.4009 84.9084 24.4009C85.9028 24.4009 86.6735 24.2337 87.2231 23.905C87.7728 23.5734 88.0476 23.1286 88.0476 22.5703C88.0476 22.0121 87.7784 21.5814 87.2373 21.2243C86.6961 20.8673 85.781 20.5669 84.4919 20.3232C81.1459 19.6771 79.4743 18.3 79.4743 16.1917C79.4743 15.3388 79.7264 14.6133 80.2336 14.0211C80.7379 13.4289 81.4009 12.984 82.2197 12.6864C83.0385 12.3889 83.9111 12.2415 84.8347 12.2415C85.968 12.2415 86.9823 12.4257 87.8804 12.7913C88.7785 13.1568 89.4868 13.6641 90.011 14.3073C90.2376 14.585 90.351 14.8655 90.351 15.1432C90.351 15.4408 90.2036 15.71 89.9062 15.9537C89.7135 16.0925 89.4698 16.1634 89.1752 16.1634C88.7219 16.1634 88.3139 15.9962 87.9456 15.6675C87.5093 15.2679 87.0475 14.9845 86.5601 14.8174C86.0728 14.653 85.4807 14.568 84.7837 14.568C83.9819 14.568 83.3246 14.704 82.809 14.9732C82.2962 15.2424 82.0383 15.6221 82.0383 16.1095C82.0383 16.4581 82.1262 16.7499 82.299 16.9851C82.4747 17.2203 82.8033 17.4385 83.2935 17.6397C83.7808 17.8409 84.4862 18.0364 85.4099 18.2291C87.3081 18.6117 88.6567 19.1444 89.45 19.8245C90.2433 20.5046 90.64 21.3858 90.64 22.4655C90.64 23.2674 90.4218 23.9957 89.9855 24.6474C89.5492 25.302 88.9089 25.8149 88.0646 26.1889C87.2203 26.563 86.2032 26.75 85.0189 26.75L85.0104 26.7557ZM99.5617 12.2189C100.763 12.2189 101.845 12.4796 102.803 13.0038C103.761 13.528 104.511 14.2903 105.052 15.2906C105.594 16.2937 105.863 17.5009 105.863 18.912V25.3445C105.863 25.727 105.735 26.0473 105.483 26.2994C105.231 26.5516 104.911 26.6792 104.528 26.6792C104.146 26.6792 103.826 26.5516 103.574 26.2994C103.321 26.0473 103.194 25.727 103.194 25.3445V18.912C103.194 17.5009 102.814 16.4326 102.058 15.71C101.298 14.9874 100.293 14.6247 99.0376 14.6247C98.3066 14.6247 97.638 14.772 97.0373 15.0696C96.4367 15.3643 95.9664 15.7666 95.6264 16.271C95.2864 16.7754 95.1164 17.3422 95.1164 17.9713V25.3445C95.1164 25.727 94.9946 26.0473 94.7509 26.2994C94.5073 26.5516 94.1843 26.6792 93.7848 26.6792C93.3853 26.6792 93.0822 26.5516 92.83 26.2994C92.5779 26.0473 92.4504 25.727 92.4504 25.3445V7.56596C92.4504 7.16641 92.5779 6.84337 92.83 6.59968C93.0822 6.35598 93.3995 6.23413 93.7848 6.23413C94.1701 6.23413 94.5073 6.35598 94.7509 6.59968C94.9946 6.84337 95.1164 7.16641 95.1164 7.56596V13.9729C95.6746 13.4147 96.3375 12.984 97.1025 12.6779C97.8703 12.3719 98.6891 12.2217 99.5589 12.2217L99.5617 12.2189ZM114.872 24.4037C115.745 24.4037 116.533 24.1912 117.238 23.7633C117.944 23.3354 118.502 22.7517 118.913 22.0121C119.321 21.2725 119.527 20.4394 119.527 19.5156C119.527 18.5918 119.323 17.7559 118.913 17.005C118.502 16.254 117.946 15.6675 117.238 15.2396C116.533 14.8117 115.745 14.5992 114.872 14.5992C114 14.5992 113.212 14.8117 112.507 15.2396C111.801 15.6675 111.249 16.254 110.846 17.005C110.447 17.7531 110.246 18.5918 110.246 19.5156C110.246 20.4394 110.447 21.2725 110.846 22.0121C111.246 22.7517 111.801 23.3354 112.507 23.7633C113.212 24.1912 114 24.4037 114.872 24.4037ZM114.872 12.2444C116.215 12.2444 117.439 12.5617 118.544 13.1993C119.652 13.8369 120.519 14.7068 121.145 15.8148C121.771 16.9228 122.086 18.1554 122.086 19.5156C122.086 20.8758 121.794 22.1084 121.21 23.2164C120.627 24.3244 119.825 25.1915 118.805 25.8177C117.785 26.444 116.649 26.7585 115.394 26.7585C114.382 26.7585 113.442 26.5488 112.569 26.1323C111.696 25.7129 110.957 25.1291 110.348 24.381V31.4398C110.348 31.8393 110.226 32.1623 109.982 32.406C109.739 32.6497 109.416 32.7716 109.016 32.7716C108.617 32.7716 108.313 32.6497 108.061 32.406C107.809 32.1623 107.682 31.8393 107.682 31.4398V19.5184C107.682 18.1583 107.999 16.9256 108.636 15.8177C109.274 14.7097 110.135 13.8397 111.223 13.2022C112.311 12.5674 113.529 12.2472 114.87 12.2472L114.872 12.2444ZM135.985 12.3237C136.385 12.3237 136.708 12.4456 136.952 12.6893C137.195 12.933 137.317 13.256 137.317 13.6556V25.3162C137.317 25.6987 137.195 26.0189 136.952 26.2711C136.708 26.5233 136.385 26.6508 135.985 26.6508C135.586 26.6508 135.283 26.5233 135.031 26.2711C134.778 26.0189 134.651 25.7015 134.651 25.3162V25.03C134.093 25.5882 133.43 26.0189 132.665 26.325C131.897 26.631 131.078 26.7812 130.209 26.7812C129.007 26.7812 127.925 26.5205 126.967 25.9962C126.01 25.472 125.259 24.7098 124.718 23.7095C124.177 22.7063 123.907 21.4992 123.907 20.088V13.6556C123.907 13.273 124.035 12.9528 124.287 12.7006C124.539 12.4484 124.859 12.3209 125.242 12.3209C125.624 12.3209 125.945 12.4484 126.197 12.7006C126.449 12.9528 126.576 13.273 126.576 13.6556V20.088C126.576 21.4992 126.956 22.5675 127.712 23.2901C128.472 24.0127 129.478 24.3754 130.733 24.3754C131.464 24.3754 132.132 24.228 132.733 23.9305C133.334 23.633 133.804 23.2334 134.144 22.729C134.484 22.2246 134.654 21.6579 134.654 21.0288V13.6556C134.654 13.2532 134.781 12.933 135.033 12.6893C135.286 12.4456 135.603 12.3237 135.988 12.3237H135.985ZM146.329 24.4037C147.202 24.4037 147.99 24.1912 148.695 23.7633C149.401 23.3354 149.959 22.7517 150.37 22.0121C150.778 21.2725 150.984 20.4394 150.984 19.5156C150.984 18.5918 150.78 17.7559 150.37 17.005C149.959 16.254 149.404 15.6675 148.695 15.2396C147.99 14.8117 147.202 14.5992 146.329 14.5992C145.457 14.5992 144.669 14.8117 143.964 15.2396C143.258 15.6675 142.706 16.254 142.303 17.005C141.904 17.7531 141.703 18.5918 141.703 19.5156C141.703 20.4394 141.904 21.2725 142.303 22.0121C142.703 22.7517 143.258 23.3354 143.964 23.7633C144.669 24.1912 145.457 24.4037 146.329 24.4037ZM146.329 12.2444C147.672 12.2444 148.896 12.5617 150.001 13.1993C151.109 13.8369 151.976 14.7068 152.602 15.8148C153.228 16.9228 153.543 18.1554 153.543 19.5156C153.543 20.8758 153.251 22.1084 152.667 23.2164C152.084 24.3244 151.282 25.1915 150.262 25.8177C149.242 26.444 148.106 26.7585 146.851 26.7585C145.839 26.7585 144.899 26.5488 144.029 26.1323C143.156 25.7129 142.417 25.1291 141.808 24.381V31.4398C141.808 31.8393 141.686 32.1623 141.442 32.406C141.199 32.6497 140.876 32.7716 140.476 32.7716C140.077 32.7716 139.773 32.6497 139.521 32.406C139.269 32.1623 139.142 31.8393 139.142 31.4398V19.5184C139.142 18.1583 139.459 16.9256 140.096 15.8177C140.734 14.7097 141.595 13.8397 142.683 13.2022C143.771 12.5674 144.989 12.2472 146.329 12.2472V12.2444ZM162.555 24.4037C163.428 24.4037 164.215 24.1912 164.921 23.7633C165.626 23.3354 166.185 22.7517 166.595 22.0121C167.006 21.2725 167.21 20.4394 167.21 19.5156C167.21 18.5918 167.006 17.7559 166.595 17.005C166.185 16.254 165.629 15.6675 164.921 15.2396C164.215 14.8117 163.428 14.5992 162.555 14.5992C161.683 14.5992 160.895 14.8117 160.19 15.2396C159.484 15.6675 158.932 16.254 158.529 17.005C158.13 17.7531 157.929 18.5918 157.929 19.5156C157.929 20.4394 158.13 21.2725 158.529 22.0121C158.929 22.7517 159.484 23.3354 160.19 23.7633C160.895 24.1912 161.685 24.4037 162.555 24.4037ZM162.555 12.2444C163.898 12.2444 165.122 12.5617 166.227 13.1993C167.335 13.8369 168.202 14.7068 168.828 15.8148C169.454 16.9228 169.769 18.1554 169.769 19.5156C169.769 20.8758 169.477 22.1084 168.893 23.2164C168.309 24.3244 167.508 25.1915 166.488 25.8177C165.468 26.444 164.332 26.7585 163.077 26.7585C162.065 26.7585 161.124 26.5488 160.252 26.1323C159.379 25.7129 158.64 25.1291 158.031 24.381V31.4398C158.031 31.8393 157.909 32.1623 157.665 32.406C157.421 32.6497 157.098 32.7716 156.699 32.7716C156.3 32.7716 155.996 32.6497 155.744 32.406C155.492 32.1623 155.365 31.8393 155.365 31.4398V19.5184C155.365 18.1583 155.682 16.9256 156.319 15.8177C156.957 14.7097 157.818 13.8397 158.906 13.2022C159.997 12.5674 161.212 12.2472 162.552 12.2472L162.555 12.2444ZM178.807 24.4037C179.696 24.4037 180.492 24.194 181.198 23.7775C181.903 23.3581 182.453 22.78 182.844 22.0376C183.238 21.298 183.433 20.4564 183.433 19.5156C183.433 18.5748 183.238 17.7276 182.844 16.9795C182.453 16.2285 181.903 15.6448 181.198 15.2282C180.492 14.8089 179.693 14.602 178.807 14.602C177.92 14.602 177.121 14.8117 176.415 15.2282C175.71 15.6476 175.157 16.2314 174.755 16.9795C174.356 17.7276 174.154 18.5748 174.154 19.5156C174.154 20.4564 174.356 21.298 174.755 22.0376C175.155 22.7772 175.71 23.3581 176.415 23.7775C177.121 24.1969 177.92 24.4037 178.807 24.4037ZM178.807 26.7557C177.413 26.7557 176.166 26.4468 175.07 25.8262C173.973 25.2085 173.117 24.3499 172.508 23.2504C171.899 22.1509 171.593 20.9069 171.593 19.5128C171.593 18.1186 171.899 16.8463 172.508 15.7468C173.117 14.6473 173.973 13.7887 175.07 13.171C176.169 12.5532 177.413 12.2415 178.807 12.2415C180.2 12.2415 181.416 12.5504 182.507 13.171C183.595 13.7887 184.45 14.6473 185.068 15.7468C185.686 16.8434 185.997 18.0988 185.997 19.5128C185.997 20.9268 185.691 22.1538 185.082 23.2504C184.473 24.3499 183.623 25.2085 182.532 25.8262C181.444 26.444 180.2 26.7557 178.807 26.7557ZM54.5846 12.2444C55.9275 12.2444 57.1515 12.5617 58.2564 13.1993C59.3642 13.8369 60.2312 14.7068 60.8573 15.8148C61.4834 16.9228 61.7979 18.1554 61.7979 19.5156C61.7979 20.8758 61.5061 22.1084 60.9225 23.2164C60.3388 24.3244 59.537 25.1915 58.5171 25.8177C57.4971 26.444 56.361 26.7585 55.1059 26.7585C54.0944 26.7585 53.1538 26.5488 52.284 26.1323C51.4114 25.7129 50.6719 25.1291 50.0628 24.381V31.4398C50.0628 31.8393 49.941 32.1623 49.6973 32.406C49.4536 32.6497 49.1307 32.7716 48.7312 32.7716C48.3317 32.7716 48.0285 32.6497 47.7764 32.406C47.5242 32.1623 47.3967 31.8393 47.3967 31.4398V19.5184C47.3967 18.1583 47.7141 16.9256 48.3515 15.8177C48.989 14.7097 49.8503 13.8397 50.9382 13.2022C52.0262 12.5674 53.2445 12.2472 54.5846 12.2472V12.2444Z" fill="white"/>
<path d="M2.39123 10.5442C2.77371 9.83293 3.65767 9.5694 4.3688 9.94911C5.07994 10.3317 5.34343 11.2158 4.96378 11.927C4.30364 13.1483 3.788 14.4603 3.43951 15.8403C3.10236 17.175 2.92387 18.5777 2.92387 20.0257C2.92387 23.1031 3.737 25.9878 5.15927 28.4757C6.63537 31.0601 8.76594 33.2193 11.3272 34.7297L11.3328 34.7353C13.4747 36.0133 15.0897 36.3732 16.1776 35.8178C17.2967 35.2482 18.0787 33.65 18.5235 31.0261C18.668 28.2434 19.4698 26.1776 20.9317 24.8288C22.4362 23.4403 24.5299 22.8877 27.213 23.1711C29.1962 23.2334 30.5136 22.763 31.1653 21.7627C31.7886 20.8078 31.9501 19.3173 31.6526 17.2912C27.4113 17.2912 25.4167 15.0469 23.4278 12.8055C22.5552 11.8222 21.6854 10.8417 20.6314 10.1956C19.2006 9.3172 17.4554 9.16135 15.7781 9.56373C13.9734 10.0001 12.2565 11.0769 11.0778 12.6043C9.91339 14.109 9.7519 16.1379 10.2987 18.2716C10.8455 20.4054 12.0893 22.627 13.7694 24.5851C15.3503 22.7092 16.5516 20.4876 16.9936 18.0591C17.4412 15.5853 17.0672 12.9046 14.4154 12.0432C16.8179 10.6434 19.9203 12.2529 20.0619 16.1237C20.1271 17.8891 19.7276 19.9095 18.838 21.9441C17.9682 23.9333 16.6338 25.9509 14.8092 27.7758L13.7751 28.8101L12.7409 27.7758C10.191 25.2255 8.26446 22.0631 7.47683 18.9914C6.7147 16.016 7.00369 13.1058 8.76877 10.8219C10.3554 8.76746 12.6673 7.31662 15.1038 6.73004C17.4979 6.15197 20.0251 6.3985 22.15 7.70483C23.5666 8.57477 24.5866 9.72525 25.6094 10.8757C27.3008 12.7828 28.9979 14.6955 32.715 14.3187L34.0155 14.1883L34.2875 15.4691C35.0184 18.9121 34.7918 21.5417 33.6075 23.3553C32.3439 25.2935 30.1538 26.206 27.0345 26.0869L26.9325 26.0813C25.1107 25.8858 23.7678 26.1833 22.9065 26.9796C22.014 27.8042 21.5239 29.2295 21.4304 31.2613L21.4247 31.3633L21.4134 31.4369C20.8071 35.0726 19.5038 37.4018 17.5007 38.4248C15.4608 39.4648 12.9081 39.0709 9.83973 37.2432C6.84219 35.4778 4.34614 32.9501 2.62072 29.9294C0.954791 27.0051 0 23.6245 0 20.0257C0 18.3425 0.209657 16.7018 0.606306 15.1319C1.01429 13.5167 1.61776 11.978 2.39123 10.5442Z" fill="#FFA070"/>
<path d="M26.3601 38.9235C25.598 39.1813 24.7707 38.7704 24.5128 38.0053C24.255 37.2431 24.6658 36.4156 25.4308 36.1578C28.6635 35.0725 31.4825 33.0436 33.5366 30.3742C35.5255 27.7899 36.7976 24.602 37.0271 21.0939C37.3359 16.3957 35.7097 12.0148 32.834 8.73339C29.9583 5.45198 25.8275 3.26721 21.13 2.96117C19.1326 2.83082 17.1975 3.04618 15.3843 3.55908C13.4973 4.09181 11.7379 4.93908 10.174 6.04705C9.51668 6.51178 8.60722 6.35876 8.13975 5.70134C7.6751 5.04393 7.82809 4.13432 8.4854 3.66676C10.327 2.36326 12.3896 1.36581 14.5938 0.74523C16.7244 0.147323 18.9909 -0.110543 21.3198 0.0424761C26.8247 0.402354 31.661 2.96117 35.0325 6.80648C38.4041 10.6518 40.308 15.7808 39.9482 21.2866C39.679 25.3869 38.1859 29.1189 35.8485 32.1538C33.4431 35.2765 30.1424 37.654 26.3601 38.9235Z" fill="#758DFF"/>
<path fill-rule="evenodd" clip-rule="evenodd" d="M13.6192 13.8254C14.8177 13.8254 15.7894 14.7974 15.7894 15.996C15.7894 17.1947 14.8177 18.1666 13.6192 18.1666C12.4208 18.1666 11.449 17.1947 11.449 15.996C11.449 14.7974 12.4208 13.8254 13.6192 13.8254Z" fill="#FFD4BE"/>
</g>
<defs>
<clipPath id="clip0_233_1629">
<rect width="186" height="39" fill="white"/>
</clipPath>
</defs>
</svg>
