<svg width="15" height="15" viewBox="0 0 15 15" fill="none" xmlns="http://www.w3.org/2000/svg">
<path d="M7.5 10.1705C6.02544 10.1705 4.82954 8.97456 4.82954 7.5C4.82954 6.02544 6.02544 4.82954 7.5 4.82954C8.97456 4.82954 10.1705 6.02544 10.1705 7.5C10.1705 8.97456 8.97456 10.1705 7.5 10.1705Z" fill="white"/>
<path fill-rule="evenodd" clip-rule="evenodd" d="M4.25 1C2.45509 1 1 2.45509 1 4.25V10.75C1 12.5449 2.45509 14 4.25 14H10.75C12.5449 14 14 12.5449 14 10.75V4.25C14 2.45509 12.5449 1 10.75 1H4.25ZM12.0572 3.7297C12.0572 4.16134 11.7068 4.5092 11.2777 4.5092C10.8458 4.5092 10.498 4.15881 10.498 3.7297C10.498 3.29785 10.8484 2.95 11.2777 2.95C11.7068 2.95 12.0572 3.30039 12.0572 3.7297ZM7.5 3.38333C5.22733 3.38333 3.38333 5.22733 3.38333 7.5C3.38333 9.77267 5.22733 11.6167 7.5 11.6167C9.77267 11.6167 11.6167 9.77267 11.6167 7.5C11.6167 5.22733 9.77267 3.38333 7.5 3.38333Z" fill="white"/>
</svg>
