<svg width="192" height="40" viewBox="0 0 192 40" fill="none" xmlns="http://www.w3.org/2000/svg">
<g clip-path="url(#clip0_233_1386)">
<path d="M56.3454 25.0295C57.2462 25.0295 58.0592 24.8115 58.7874 24.3727C59.5156 23.9338 60.0918 23.3351 60.5159 22.5766C60.937 21.818 61.1505 20.9635 61.1505 20.0161C61.1505 19.0686 60.9399 18.2112 60.5159 17.4411C60.0918 16.6709 59.5186 16.0693 58.7874 15.6304C58.0592 15.1915 57.2462 14.9736 56.3454 14.9736C55.4446 14.9736 54.6316 15.1915 53.9033 15.6304C53.1751 16.0693 52.6048 16.6709 52.1895 17.4411C51.7771 18.2083 51.5695 19.0686 51.5695 20.0161C51.5695 20.9635 51.7771 21.818 52.1895 22.5766C52.6019 23.3351 53.1751 23.9338 53.9033 24.3727C54.6316 24.8115 55.4446 25.0295 56.3454 25.0295ZM73.1209 25.0295C74.0392 25.0295 74.861 24.8144 75.5892 24.3872C76.3175 23.9571 76.8848 23.3642 77.2884 22.6027C77.695 21.8442 77.8968 20.981 77.8968 20.0161C77.8968 19.0512 77.695 18.1822 77.2884 17.4149C76.8848 16.6447 76.3175 16.046 75.5892 15.6188C74.861 15.1886 74.0392 14.9765 73.1209 14.9765C72.2026 14.9765 71.3807 15.1915 70.6525 15.6188C69.9243 16.0489 69.354 16.6476 68.9387 17.4149C68.5263 18.1822 68.3187 19.0512 68.3187 20.0161C68.3187 20.981 68.5263 21.8442 68.9387 22.6027C69.3511 23.3613 69.9243 23.9571 70.6525 24.3872C71.3807 24.8174 72.2055 25.0295 73.1209 25.0295ZM73.1209 27.4418C71.682 27.4418 70.3952 27.125 69.2633 26.4885C68.1286 25.8549 67.2483 24.9743 66.6195 23.8466C65.9907 22.719 65.6748 21.4431 65.6748 20.0132C65.6748 18.5832 65.9907 17.2783 66.6195 16.1506C67.2483 15.023 68.1315 14.1424 69.2633 13.5088C70.3952 12.8752 71.682 12.5555 73.1209 12.5555C74.5598 12.5555 75.8144 12.8723 76.9404 13.5088C78.0664 14.1424 78.9467 15.023 79.5842 16.1506C80.2218 17.2754 80.5435 18.5629 80.5435 20.0132C80.5435 21.4634 80.2277 22.7219 79.5989 23.8466C78.9701 24.9743 78.0927 25.8549 76.9667 26.4885C75.8437 27.1221 74.5598 27.4418 73.1209 27.4418ZM87.7527 27.4418C86.5302 27.4418 85.3779 27.2529 84.2987 26.8779C83.2195 26.503 82.3743 26.0119 81.7631 25.4015C81.5291 25.169 81.4121 24.8929 81.4121 24.5703C81.4121 24.1402 81.5905 23.7914 81.9532 23.524C82.2953 23.2741 82.6112 23.1491 82.8978 23.1491C83.2575 23.1491 83.5997 23.309 83.9244 23.6316C84.2665 24.0065 84.7783 24.332 85.4627 24.611C86.147 24.8871 86.8753 25.0266 87.6474 25.0266C88.6739 25.0266 89.4694 24.8551 90.0368 24.518C90.6041 24.178 90.8878 23.7217 90.8878 23.1491C90.8878 22.5766 90.61 22.1348 90.0514 21.7686C89.4928 21.4024 88.5481 21.0943 87.2175 20.8444C83.7635 20.1817 82.038 18.7693 82.038 16.6069C82.038 15.7321 82.2983 14.9881 82.8218 14.3807C83.3424 13.7732 84.0267 13.317 84.8719 13.0118C85.7171 12.7066 86.6179 12.5555 87.5713 12.5555C88.7412 12.5555 89.7882 12.7444 90.7153 13.1193C91.6424 13.4942 92.3735 14.0145 92.9146 14.6742C93.1485 14.959 93.2655 15.2468 93.2655 15.5316C93.2655 15.8368 93.1134 16.1129 92.8064 16.3628C92.6075 16.5052 92.356 16.5779 92.0518 16.5779C91.5839 16.5779 91.1627 16.4064 90.7825 16.0693C90.3322 15.6595 89.8554 15.3688 89.3524 15.1974C88.8494 15.0288 88.2381 14.9416 87.5187 14.9416C86.691 14.9416 86.0125 15.0811 85.4802 15.3572C84.9509 15.6333 84.6847 16.0228 84.6847 16.5226C84.6847 16.8801 84.7754 17.1795 84.9538 17.4207C85.1351 17.6619 85.4744 17.8857 85.9803 18.0921C86.4834 18.2984 87.2116 18.499 88.165 18.6966C90.1245 19.089 91.5166 19.6353 92.3355 20.3329C93.1544 21.0304 93.5638 21.9343 93.5638 23.0416C93.5638 23.8641 93.3386 24.611 92.8882 25.2795C92.4379 25.9508 91.7769 26.4769 90.9054 26.8605C90.0338 27.2441 88.9839 27.436 87.7614 27.436L87.7527 27.4418ZM102.773 12.5322C104.013 12.5322 105.131 12.7996 106.119 13.3373C107.108 13.875 107.883 14.6568 108.441 15.6827C109 16.7116 109.278 17.9497 109.278 19.397V25.9944C109.278 26.3868 109.146 26.7152 108.886 26.9739C108.626 27.2325 108.295 27.3633 107.9 27.3633C107.505 27.3633 107.175 27.2325 106.915 26.9739C106.654 26.7152 106.523 26.3868 106.523 25.9944V19.397C106.523 17.9497 106.131 16.854 105.35 16.1129C104.566 15.3717 103.528 14.9997 102.232 14.9997C101.478 14.9997 100.788 15.1509 100.168 15.456C99.5476 15.7583 99.0621 16.171 98.7111 16.6883C98.3602 17.2056 98.1847 17.7869 98.1847 18.4321V25.9944C98.1847 26.3868 98.0589 26.7152 97.8074 26.9739C97.5559 27.2325 97.2225 27.3633 96.8101 27.3633C96.3978 27.3633 96.0848 27.2325 95.8246 26.9739C95.5643 26.7152 95.4327 26.3868 95.4327 25.9944V7.76002C95.4327 7.35023 95.5643 7.01891 95.8246 6.76896C96.0848 6.51902 96.4124 6.39404 96.8101 6.39404C97.2079 6.39404 97.5559 6.51902 97.8074 6.76896C98.0589 7.01891 98.1847 7.35023 98.1847 7.76002V14.3313C98.7608 13.7587 99.4452 13.317 100.235 13.0031C101.027 12.6892 101.873 12.5351 102.77 12.5351L102.773 12.5322ZM118.578 25.0295C119.479 25.0295 120.292 24.8115 121.02 24.3727C121.748 23.9338 122.324 23.3351 122.748 22.5766C123.17 21.818 123.383 20.9635 123.383 20.0161C123.383 19.0686 123.172 18.2112 122.748 17.4411C122.324 16.6709 121.751 16.0693 121.02 15.6304C120.292 15.1915 119.479 14.9736 118.578 14.9736C117.677 14.9736 116.864 15.1915 116.136 15.6304C115.408 16.0693 114.837 16.6709 114.422 17.4411C114.01 18.2083 113.802 19.0686 113.802 20.0161C113.802 20.9635 114.01 21.818 114.422 22.5766C114.834 23.3351 115.408 23.9338 116.136 24.3727C116.864 24.8115 117.677 25.0295 118.578 25.0295ZM118.578 12.5584C119.964 12.5584 121.228 12.8839 122.368 13.5378C123.512 14.1918 124.407 15.084 125.053 16.2204C125.699 17.3568 126.024 18.621 126.024 20.0161C126.024 21.4111 125.723 22.6754 125.12 23.8118C124.518 24.9481 123.69 25.8375 122.637 26.4798C121.584 27.1221 120.412 27.4447 119.116 27.4447C118.072 27.4447 117.101 27.2296 116.2 26.8024C115.299 26.3722 114.536 25.7735 113.907 25.0063V32.246C113.907 32.6558 113.782 32.9871 113.53 33.237C113.279 33.487 112.945 33.6119 112.533 33.6119C112.12 33.6119 111.807 33.487 111.547 33.237C111.287 32.9871 111.155 32.6558 111.155 32.246V20.019C111.155 18.6239 111.483 17.3597 112.141 16.2233C112.799 15.0869 113.688 14.1947 114.811 13.5407C115.934 12.8897 117.192 12.5613 118.575 12.5613L118.578 12.5584ZM140.372 12.6398C140.784 12.6398 141.118 12.7647 141.369 13.0147C141.621 13.2646 141.747 13.596 141.747 14.0058V25.9654C141.747 26.3577 141.621 26.6861 141.369 26.9448C141.118 27.2035 140.784 27.3342 140.372 27.3342C139.96 27.3342 139.647 27.2035 139.386 26.9448C139.126 26.6861 138.995 26.3606 138.995 25.9654V25.6718C138.418 26.2444 137.734 26.6861 136.944 27C136.152 27.3139 135.307 27.4679 134.409 27.4679C133.169 27.4679 132.052 27.2006 131.063 26.6629C130.075 26.1252 129.3 25.3434 128.741 24.3175C128.182 23.2886 127.904 22.0505 127.904 20.6032V14.0058C127.904 13.6134 128.036 13.285 128.296 13.0263C128.557 12.7677 128.887 12.6369 129.282 12.6369C129.677 12.6369 130.007 12.7677 130.268 13.0263C130.528 13.285 130.659 13.6134 130.659 14.0058V20.6032C130.659 22.0505 131.051 23.1462 131.832 23.8873C132.616 24.6284 133.654 25.0005 134.95 25.0005C135.704 25.0005 136.395 24.8493 137.015 24.5442C137.635 24.239 138.12 23.8292 138.471 23.3119C138.822 22.7945 138.997 22.2133 138.997 21.5681V14.0058C138.997 13.5931 139.129 13.2646 139.389 13.0147C139.65 12.7647 139.977 12.6398 140.375 12.6398H140.372ZM151.05 25.0295C151.951 25.0295 152.764 24.8115 153.492 24.3727C154.22 23.9338 154.796 23.3351 155.22 22.5766C155.641 21.818 155.855 20.9635 155.855 20.0161C155.855 19.0686 155.644 18.2112 155.22 17.4411C154.796 16.6709 154.223 16.0693 153.492 15.6304C152.764 15.1915 151.951 14.9736 151.05 14.9736C150.149 14.9736 149.336 15.1915 148.608 15.6304C147.88 16.0693 147.309 16.6709 146.894 17.4411C146.482 18.2083 146.274 19.0686 146.274 20.0161C146.274 20.9635 146.482 21.818 146.894 22.5766C147.306 23.3351 147.88 23.9338 148.608 24.3727C149.336 24.8115 150.149 25.0295 151.05 25.0295ZM151.05 12.5584C152.436 12.5584 153.699 12.8839 154.84 13.5378C155.984 14.1918 156.879 15.084 157.525 16.2204C158.171 17.3568 158.496 18.621 158.496 20.0161C158.496 21.4111 158.195 22.6754 157.592 23.8118C156.99 24.9481 156.162 25.8375 155.109 26.4798C154.056 27.1221 152.884 27.4447 151.588 27.4447C150.544 27.4447 149.573 27.2296 148.675 26.8024C147.774 26.3722 147.011 25.7735 146.382 25.0063V32.246C146.382 32.6558 146.256 32.9871 146.005 33.237C145.753 33.487 145.42 33.6119 145.008 33.6119C144.595 33.6119 144.282 33.487 144.022 33.237C143.762 32.9871 143.63 32.6558 143.63 32.246V20.019C143.63 18.6239 143.958 17.3597 144.616 16.2233C145.274 15.0869 146.163 14.1947 147.286 13.5407C148.409 12.8897 149.666 12.5613 151.05 12.5613V12.5584ZM167.799 25.0295C168.7 25.0295 169.513 24.8115 170.241 24.3727C170.969 23.9338 171.545 23.3351 171.969 22.5766C172.394 21.818 172.604 20.9635 172.604 20.0161C172.604 19.0686 172.394 18.2112 171.969 17.4411C171.545 16.6709 170.972 16.0693 170.241 15.6304C169.513 15.1915 168.7 14.9736 167.799 14.9736C166.898 14.9736 166.085 15.1915 165.357 15.6304C164.629 16.0693 164.058 16.6709 163.643 17.4411C163.231 18.2083 163.023 19.0686 163.023 20.0161C163.023 20.9635 163.231 21.818 163.643 22.5766C164.055 23.3351 164.629 23.9338 165.357 24.3727C166.085 24.8115 166.901 25.0295 167.799 25.0295ZM167.799 12.5584C169.185 12.5584 170.449 12.8839 171.589 13.5378C172.733 14.1918 173.628 15.084 174.274 16.2204C174.92 17.3568 175.245 18.621 175.245 20.0161C175.245 21.4111 174.944 22.6754 174.341 23.8118C173.739 24.9481 172.911 25.8375 171.858 26.4798C170.805 27.1221 169.633 27.4447 168.337 27.4447C167.293 27.4447 166.322 27.2296 165.421 26.8024C164.52 26.3722 163.757 25.7735 163.128 25.0063V32.246C163.128 32.6558 163.003 32.9871 162.751 33.237C162.5 33.487 162.166 33.6119 161.754 33.6119C161.341 33.6119 161.029 33.487 160.768 33.237C160.508 32.9871 160.376 32.6558 160.376 32.246V20.019C160.376 18.6239 160.704 17.3597 161.362 16.2233C162.02 15.0869 162.909 14.1947 164.032 13.5407C165.158 12.8897 166.413 12.5613 167.796 12.5613L167.799 12.5584ZM184.574 25.0295C185.493 25.0295 186.315 24.8144 187.043 24.3872C187.771 23.9571 188.338 23.3642 188.742 22.6027C189.149 21.8442 189.35 20.981 189.35 20.0161C189.35 19.0512 189.149 18.1822 188.742 17.4149C188.338 16.6447 187.771 16.046 187.043 15.6188C186.315 15.1886 185.49 14.9765 184.574 14.9765C183.659 14.9765 182.834 15.1915 182.106 15.6188C181.378 16.0489 180.808 16.6476 180.392 17.4149C179.98 18.1822 179.772 19.0512 179.772 20.0161C179.772 20.981 179.98 21.8442 180.392 22.6027C180.805 23.3613 181.378 23.9571 182.106 24.3872C182.834 24.8174 183.659 25.0295 184.574 25.0295ZM184.574 27.4418C183.136 27.4418 181.849 27.125 180.717 26.4885C179.585 25.8549 178.702 24.9743 178.073 23.8466C177.444 22.719 177.128 21.4431 177.128 20.0132C177.128 18.5832 177.444 17.2783 178.073 16.1506C178.702 15.023 179.585 14.1424 180.717 13.5088C181.852 12.8752 183.136 12.5555 184.574 12.5555C186.013 12.5555 187.268 12.8723 188.394 13.5088C189.517 14.1424 190.4 15.023 191.038 16.1506C191.675 17.2754 191.997 18.5629 191.997 20.0132C191.997 21.4634 191.681 22.7219 191.052 23.8466C190.424 24.9743 189.546 25.8549 188.42 26.4885C187.297 27.1221 186.013 27.4418 184.574 27.4418ZM56.3454 12.5584C57.7316 12.5584 58.9951 12.8839 60.1357 13.5378C61.2792 14.1918 62.1741 15.084 62.8204 16.2204C63.4668 17.3568 63.7914 18.621 63.7914 20.0161C63.7914 21.4111 63.4902 22.6754 62.8877 23.8118C62.2852 24.9481 61.4576 25.8375 60.4047 26.4798C59.3519 27.1221 58.1791 27.4447 56.8835 27.4447C55.8394 27.4447 54.8684 27.2296 53.9706 26.8024C53.0698 26.3722 52.3065 25.7735 51.6777 25.0063V32.246C51.6777 32.6558 51.552 32.9871 51.3004 33.237C51.0489 33.487 50.7155 33.6119 50.3031 33.6119C49.8908 33.6119 49.5778 33.487 49.3176 33.237C49.0573 32.9871 48.9257 32.6558 48.9257 32.246V20.019C48.9257 18.6239 49.2532 17.3597 49.9113 16.2233C50.5693 15.0869 51.4584 14.1947 52.5814 13.5407C53.7045 12.8897 54.962 12.5613 56.3454 12.5613V12.5584Z" fill="#222731"/>
<path d="M2.46836 10.8146C2.86318 10.0851 3.77566 9.81479 4.50973 10.2042C5.24381 10.5966 5.5158 11.5034 5.1239 12.2329C4.44247 13.4855 3.91019 14.8311 3.55046 16.2465C3.20244 17.6154 3.01819 19.0541 3.01819 20.5392C3.01819 23.6955 3.85755 26.6541 5.3257 29.2059C6.84941 31.8565 9.04871 34.0711 11.6926 35.6202L11.6984 35.626C13.9094 36.9368 15.5764 37.3059 16.6995 36.7362C17.8547 36.1521 18.6619 34.5129 19.121 31.8216C19.2702 28.9676 20.0979 26.8489 21.6069 25.4654C23.1599 24.0413 25.3212 23.4746 28.0908 23.7652C30.138 23.8292 31.4979 23.3467 32.1706 22.3208C32.814 21.3413 32.9807 19.8126 32.6736 17.7346C28.2955 17.7346 26.2366 15.4328 24.1835 13.1338C23.2827 12.1253 22.3849 11.1197 21.2969 10.4571C19.82 9.55613 18.0185 9.39628 16.2871 9.80898C14.4241 10.2566 12.6518 11.361 11.4352 12.9275C10.2332 14.4708 10.0665 16.5517 10.6309 18.7402C11.1954 20.9286 12.4793 23.2072 14.2136 25.2155C15.8455 23.2915 17.0855 21.0129 17.5418 18.5222C18.0038 15.985 17.6178 13.2356 14.8804 12.352C17.3604 10.9163 20.5629 12.5671 20.7091 16.5372C20.7764 18.3478 20.364 20.42 19.4457 22.5068C18.5478 24.547 17.1703 26.6164 15.2869 28.488L14.2194 29.5489L13.1519 28.488C10.5198 25.8723 8.53106 22.6289 7.71802 19.4784C6.9313 16.4267 7.22961 13.4419 9.05164 11.0994C10.6894 8.99229 13.0759 7.50425 15.591 6.90263C18.0623 6.30974 20.6711 6.56259 22.8645 7.90242C24.3268 8.79466 25.3797 9.97464 26.4355 11.1546C28.1814 13.1106 29.9333 15.0724 33.7704 14.6858L35.1128 14.5521L35.3935 15.8658C36.1481 19.397 35.9141 22.0941 34.6916 23.9541C33.3872 25.9421 31.1265 26.8779 27.9065 26.7559L27.8012 26.7501C25.9207 26.5495 24.5345 26.8547 23.6454 27.6714C22.7241 28.5171 22.2182 29.979 22.1217 32.0628L22.1158 32.1675L22.1041 32.243C21.4783 35.9719 20.1329 38.3609 18.0653 39.4101C15.9595 40.4767 13.3245 40.0727 10.1571 38.1981C7.06291 36.3875 4.48634 33.795 2.70526 30.6969C0.98559 27.6975 0 24.2303 0 20.5392C0 18.8128 0.21642 17.1301 0.625865 15.5199C1.04701 13.8633 1.66995 12.2852 2.46836 10.8146Z" fill="#FFA070"/>
<path d="M27.2105 39.9215C26.4238 40.186 25.5698 39.7646 25.3037 38.9799C25.0376 38.1981 25.4616 37.3494 26.2513 37.0849C29.5882 35.9718 32.4982 33.8909 34.6186 31.1531C36.6716 28.5025 37.9848 25.2329 38.2217 21.6348C38.5404 16.8161 36.8617 12.3229 33.8932 8.95734C30.9248 5.59179 26.6607 3.351 21.8117 3.03712C19.7499 2.90343 17.7524 3.12431 15.8806 3.65036C13.9329 4.19675 12.1167 5.06574 10.5023 6.20213C9.82379 6.67877 8.88499 6.52182 8.40244 5.84755C7.9228 5.17328 8.08073 4.24034 8.75924 3.7608C10.6602 2.42388 12.7893 1.40085 15.0647 0.764357C17.264 0.151119 19.6037 -0.113359 22.0077 0.043584C27.6902 0.41269 32.6825 3.03712 36.1627 6.98102C39.643 10.9249 41.6083 16.1854 41.2369 21.8324C40.9591 26.0379 39.4178 29.8656 37.005 32.9783C34.522 36.1811 31.1149 38.6195 27.2105 39.9215Z" fill="#758DFF"/>
<path fill-rule="evenodd" clip-rule="evenodd" d="M14.0586 14.1799C15.2957 14.1799 16.2988 15.1768 16.2988 16.4062C16.2988 17.6356 15.2957 18.6324 14.0586 18.6324C12.8215 18.6324 11.8184 17.6356 11.8184 16.4062C11.8184 15.1768 12.8215 14.1799 14.0586 14.1799Z" fill="#FFD4BE"/>
</g>
<defs>
<clipPath id="clip0_233_1386">
<rect width="192" height="40" fill="white"/>
</clipPath>
</defs>
</svg>
