<svg width="47" height="64" viewBox="0 0 47 64" fill="none" xmlns="http://www.w3.org/2000/svg">
<path d="M23.6662 0.332031C11.0187 0.332031 0.729248 10.6215 0.729248 23.2688C0.729248 38.9646 21.2556 62.007 22.1295 62.9802C22.9503 63.8945 24.3835 63.8929 25.2029 62.9802C26.0768 62.007 46.6031 38.9646 46.6031 23.2688C46.6029 10.6215 36.3135 0.332031 23.6662 0.332031ZM23.6662 34.809C17.3029 34.809 12.1262 29.6321 12.1262 23.2688C12.1262 16.9056 17.303 11.7288 23.6662 11.7288C30.0293 11.7288 35.2061 16.9057 35.2061 23.269C35.2061 29.6322 30.0293 34.809 23.6662 34.809Z" fill="#4B64D9"/>
</svg>
