<svg width="15" height="15" viewBox="0 0 15 15" fill="none" xmlns="http://www.w3.org/2000/svg">
<path d="M1.15332 12.1414C2.64375 12.2247 3.94707 11.8787 5.21813 10.9624C3.93417 10.7445 3.04378 10.1614 2.55988 8.95674C2.9341 8.90547 3.26315 9.00159 3.65028 8.8478C2.38567 8.29674 1.56625 7.47014 1.53399 6.04122C1.93402 6.07326 2.23727 6.33597 2.71473 6.29753C1.55335 5.16976 1.19848 3.93948 1.92757 2.44648C3.14056 3.83055 4.56002 4.77249 6.29563 5.21462C6.39241 5.24025 6.48273 5.26588 6.57951 5.2851C7.02471 5.38763 7.55378 5.60549 7.82477 5.57345C8.28932 5.51578 7.82477 4.98394 7.94091 4.29191C8.30868 2.13891 10.6959 1.15852 12.4638 2.42085C12.98 2.7925 13.3865 2.78609 13.8962 2.56182C14.1607 2.44648 14.4317 2.33114 14.7478 2.19658C14.6769 2.81172 14.1994 3.15133 13.8187 3.60628C14.251 3.70239 14.5994 3.58065 14.9995 3.45249C14.864 3.89463 14.5285 4.14453 14.2252 4.38802C13.9091 4.63792 13.7865 4.90064 13.7736 5.31074C13.58 11.5198 6.47629 16.3192 1.61787 12.5002C1.14687 12.1286 1.60497 12.5002 1.15332 12.1414Z" fill="white"/>
</svg>
