<svg width="86" height="79" viewBox="0 0 86 79" fill="none" xmlns="http://www.w3.org/2000/svg">
<rect x="16" y="24" width="55" height="55" rx="4" fill="#4A5DB2"/>
<path d="M41.8861 0.561148C42.259 0.20118 42.757 0 43.2753 0H43.7267C44.2533 0 44.7587 0.20772 45.1331 0.578067L82.5404 37.5781C83.811 38.8348 82.921 41 81.1339 41H4.95106C3.15225 41 2.26782 38.8105 3.56193 37.5611L41.8861 0.561148Z" fill="#576CC9"/>
<path d="M33 59C33 56.7909 34.7909 55 37 55H50C52.2091 55 54 56.7909 54 59V79H33V59Z" fill="#384995"/>
<g clip-path="url(#clip0_233_1923)">
<path d="M49.6347 31.1656C49.618 30.8636 49.5631 30.5338 49.4534 30.1741C47.5047 24.4629 43.2876 24.5367 43.2876 24.5367C43.2876 24.5367 39.0704 24.4629 37.1217 30.1741C37.0144 30.5338 36.9571 30.8612 36.9404 31.1656C36.9237 31.2832 36.9142 31.4008 36.9142 31.5207C36.9142 33.0355 38.1831 34.2622 39.7502 34.2622C40.275 34.2622 40.7664 34.1215 41.1885 33.8817C41.315 33.8149 41.4318 33.7365 41.5368 33.6489C41.5535 33.635 41.5678 33.6235 41.5845 33.6097C41.5893 33.6051 41.5964 33.6004 41.6012 33.5958C42.2667 32.9917 42.7819 32.6874 43.2876 32.7058C43.7908 32.6897 44.3084 32.9917 44.9739 33.5958C44.9787 33.6004 44.9858 33.6051 44.9906 33.6097C45.0073 33.6235 45.0216 33.6373 45.0383 33.6489C45.1433 33.7365 45.2602 33.8126 45.3866 33.8817C45.8088 34.1215 46.2977 34.2622 46.8249 34.2622C48.392 34.2622 49.6609 33.0355 49.6609 31.5207C49.6609 31.4008 49.649 31.2809 49.6347 31.1656Z" fill="#F89766"/>
<path d="M40.2877 24.3611C41.6139 24.2173 42.529 22.723 42.3318 21.0235C42.1346 19.324 40.8997 18.0628 39.5736 18.2066C38.2474 18.3504 37.3322 19.8447 37.5294 21.5442C37.7266 23.2437 38.9616 24.5049 40.2877 24.3611Z" fill="#F89766"/>
<path d="M35.6022 28.6321C36.8406 28.4979 37.6957 27.1056 37.512 25.5225C37.3283 23.9394 36.1754 22.7649 34.937 22.8992C33.6985 23.0335 32.8435 24.4257 33.0272 26.0088C33.2109 27.5919 34.3638 28.7664 35.6022 28.6321Z" fill="#F89766"/>
<path d="M48.6591 21.3475C48.8563 19.648 47.9411 18.1536 46.615 18.0098C45.2888 17.8661 44.0539 19.1272 43.8567 20.8268C43.6595 22.5263 44.5747 24.0206 45.9008 24.1644C47.227 24.3082 48.4619 23.047 48.6591 21.3475Z" fill="#F89766"/>
<path d="M53.1654 25.8149C53.3491 24.2318 52.4941 22.8395 51.2556 22.7053C50.0172 22.571 48.8643 23.7455 48.6806 25.3286C48.4969 26.9117 49.352 28.3039 50.5904 28.4382C51.8288 28.5725 52.9817 27.398 53.1654 25.8149Z" fill="#F89766"/>
</g>
<defs>
<clipPath id="clip0_233_1923">
<rect width="20.1911" height="16.2622" fill="white" transform="translate(33 18)"/>
</clipPath>
</defs>
</svg>
