<svg width="85" height="71" viewBox="0 0 85 71" fill="none" xmlns="http://www.w3.org/2000/svg">
<g clip-path="url(#clip0_233_1515)">
<path d="M69.74 57.1001C69.67 55.7901 69.44 54.3601 68.98 52.8001C60.81 28.0301 43.13 28.3501 43.13 28.3501C43.13 28.3501 25.45 28.0301 17.28 52.8001C16.83 54.3601 16.59 55.7801 16.52 57.1001C16.45 57.6101 16.41 58.1201 16.41 58.6401C16.41 65.2101 21.73 70.5301 28.3 70.5301C30.5 70.5301 32.56 69.9201 34.33 68.8801C34.86 68.5901 35.35 68.2501 35.79 67.8701C35.86 67.8101 35.92 67.7601 35.99 67.7001C36.01 67.6801 36.04 67.6601 36.06 67.6401C38.85 65.0201 41.01 63.7001 43.13 63.7801C45.24 63.7101 47.41 65.0201 50.2 67.6401C50.22 67.6601 50.25 67.6801 50.27 67.7001C50.34 67.7601 50.4 67.8201 50.47 67.8701C50.91 68.2501 51.4 68.5801 51.93 68.8801C53.7 69.9201 55.75 70.5301 57.96 70.5301C64.53 70.5301 69.85 65.2101 69.85 58.6401C69.85 58.1201 69.8 57.6001 69.74 57.1001Z" fill="#FEDCCA"/>
<path d="M30.5532 27.5883C36.113 26.9647 39.9499 20.4838 39.1231 13.1128C38.2963 5.74188 33.119 0.272093 27.5592 0.895722C21.9994 1.51935 18.1626 8.00024 18.9893 15.3712C19.8161 22.7422 24.9935 28.212 30.5532 27.5883Z" fill="#FFD4BE"/>
<path d="M10.9095 46.1121C16.1015 45.5297 19.6862 39.4916 18.916 32.6255C18.1459 25.7595 13.3126 20.6656 8.12053 21.248C2.92847 21.8304 -0.656189 27.8685 0.113959 34.7345C0.884107 41.6006 5.71743 46.6944 10.9095 46.1121Z" fill="#FFD4BE"/>
<path d="M65.65 14.5181C66.4768 7.14718 62.6399 0.666285 57.0801 0.0426563C51.5204 -0.580973 46.343 4.88882 45.5162 12.2598C44.6895 19.6307 48.5263 26.1116 54.0861 26.7353C59.6459 27.3589 64.8232 21.8891 65.65 14.5181Z" fill="#FFD4BE"/>
<path d="M84.5422 33.8934C85.3123 27.0274 81.7276 20.9892 76.5356 20.4069C71.3435 19.8245 66.5102 24.9184 65.7401 31.7844C64.9699 38.6504 68.5546 44.6885 73.7466 45.2709C78.9387 45.8533 83.772 40.7594 84.5422 33.8934Z" fill="#FFD4BE"/>
<rect x="34" y="44" width="18" height="6" rx="1" fill="#4B73D9"/>
<rect x="40" y="56" width="18" height="6" rx="1" transform="rotate(-90 40 56)" fill="#4B73D9"/>
</g>
<defs>
<clipPath id="clip0_233_1515">
<rect width="84.65" height="70.53" fill="white"/>
</clipPath>
</defs>
</svg>
