<svg width="62" height="81" viewBox="0 0 62 81" fill="none" xmlns="http://www.w3.org/2000/svg">
<g clip-path="url(#clip0_233_1500)">
<path d="M29 8.48794C29 4.89127 26.3137 1.97559 23 1.97559C19.6863 1.97559 17 4.89127 17 8.48794V49.7892C17 53.3859 19.6863 56.3016 23 56.3016C26.3137 56.3016 29 53.3859 29 49.7892V8.48794Z" fill="#FEDCCA"/>
<path d="M29.26 46.019H16.81C14.5236 46.019 12.67 47.8499 12.67 50.1083V63.6207C12.67 65.8791 14.5236 67.7099 16.81 67.7099H29.26C31.5465 67.7099 33.4 65.8791 33.4 63.6207V50.1083C33.4 47.8499 31.5465 46.019 29.26 46.019Z" fill="#576CC9"/>
<path d="M37.04 55.2347C33.08 54.3359 33.59 51.3628 33.35 50.533C33.16 49.8811 30.28 54.5532 29.1 56.5089C25.53 58.6721 23.11 62.8799 23.11 67.7001C23.11 74.7427 28.27 80.4617 34.62 80.4617C40.97 80.4617 46.13 74.7526 46.13 67.7001C46.13 61.576 42.23 56.4595 37.03 55.2248L37.04 55.2347Z" fill="#576CC9"/>
<path d="M34.62 74.9601C38.2319 74.9601 41.16 71.7141 41.16 67.71C41.16 63.7059 38.2319 60.46 34.62 60.46C31.008 60.46 28.08 63.7059 28.08 67.71C28.08 71.7141 31.008 74.9601 34.62 74.9601Z" fill="#F89766"/>
<path d="M9.1 55.373C13.06 54.4742 12.55 51.5011 12.79 50.6714C12.98 50.0194 15.86 54.6915 17.04 56.6472C20.61 58.8104 23.03 63.0182 23.03 67.8384C23.03 74.881 17.87 80.6 11.52 80.6C5.17 80.6 0 74.8909 0 67.8384C0 61.7143 3.9 56.5978 9.1 55.3631V55.373Z" fill="#576CC9"/>
<path d="M11.51 75.0885C15.1219 75.0885 18.05 71.8425 18.05 67.8384C18.05 63.8343 15.1219 60.5884 11.51 60.5884C7.89806 60.5884 4.97 63.8343 4.97 67.8384C4.97 71.8425 7.89806 75.0885 11.51 75.0885Z" fill="#F89766"/>
</g>
<rect x="42" y="3.07849" width="18" height="37.9705" rx="4" fill="#4A5DB2"/>
<rect x="54" width="8" height="79.0196" rx="2" fill="#576CC9"/>
<defs>
<clipPath id="clip0_233_1500">
<rect width="46.14" height="79.6123" fill="white" transform="translate(0 0.987793)"/>
</clipPath>
</defs>
</svg>
