<svg width="87" height="74" viewBox="0 0 87 74" fill="none" xmlns="http://www.w3.org/2000/svg">
<rect x="13" y="21" width="61" height="53" rx="4" fill="#4A5DB2"/>
<g clip-path="url(#clip0_233_1900)">
<path d="M51.5629 56.4262C51.542 56.0493 51.4736 55.6379 51.3367 55.1892C48.9054 48.0635 43.6439 48.1556 43.6439 48.1556C43.6439 48.1556 38.3824 48.0635 35.951 55.1892C35.8171 55.6379 35.7457 56.0464 35.7249 56.4262C35.704 56.5729 35.6921 56.7196 35.6921 56.8692C35.6921 58.7592 37.2753 60.2896 39.2305 60.2896C39.8853 60.2896 40.4983 60.1141 41.025 59.815C41.1828 59.7315 41.3286 59.6337 41.4595 59.5244C41.4804 59.5071 41.4982 59.4928 41.519 59.4755C41.525 59.4697 41.5339 59.464 41.5399 59.4582C42.3702 58.7045 43.013 58.3248 43.6439 58.3478C44.2718 58.3277 44.9176 58.7045 45.7479 59.4582C45.7538 59.464 45.7628 59.4697 45.7687 59.4755C45.7895 59.4928 45.8074 59.51 45.8282 59.5244C45.9592 59.6337 46.105 59.7287 46.2627 59.815C46.7895 60.1141 47.3995 60.2896 48.0572 60.2896C50.0124 60.2896 51.5956 58.7592 51.5956 56.8692C51.5956 56.7196 51.5807 56.57 51.5629 56.4262Z" fill="#FEDCCA"/>
<path d="M39.9011 47.9364C41.5556 47.757 42.6975 45.8926 42.4514 43.7722C42.2054 41.6518 40.6646 40.0783 39.0101 40.2577C37.3555 40.4371 36.2137 42.3015 36.4597 44.4219C36.7058 46.5423 38.2465 48.1158 39.9011 47.9364Z" fill="#FFD4BE"/>
<path d="M34.0552 53.2651C35.6003 53.0976 36.6671 51.3606 36.4379 49.3854C36.2087 47.4103 34.7703 45.9449 33.2252 46.1124C31.6801 46.28 30.6133 48.017 30.8425 49.9921C31.0717 51.9673 32.51 53.4327 34.0552 53.2651Z" fill="#FFD4BE"/>
<path d="M50.3457 44.1765C50.5918 42.0561 49.4499 40.1917 47.7954 40.0123C46.1408 39.8329 44.6001 41.4064 44.354 43.5268C44.108 45.6473 45.2498 47.5116 46.9044 47.691C48.5589 47.8704 50.0997 46.2969 50.3457 44.1765Z" fill="#FFD4BE"/>
<path d="M55.9679 49.7502C56.1971 47.775 55.1303 46.038 53.5852 45.8705C52.0401 45.7029 50.6017 47.1683 50.3725 49.1435C50.1433 51.1187 51.2101 52.8557 52.7552 53.0232C54.3004 53.1907 55.7387 51.7254 55.9679 49.7502Z" fill="#FFD4BE"/>
</g>
<path d="M14.2277 0.980712C14.5877 0.372803 15.2419 0 15.9484 0H70.6697C71.3757 0 72.0295 0.372281 72.3897 0.97951L84.8488 21.9795C85.6397 23.3127 84.6789 25 83.1287 25H3.50922C1.95967 25 0.998737 23.3139 1.78845 21.9807L14.2277 0.980712Z" fill="#576CC9"/>
<path d="M1.33887 23H11.809V24.7649C11.809 27.6562 9.46518 30 6.57393 30C3.68269 30 1.33887 27.6562 1.33887 24.7649V23Z" fill="#7086E8"/>
<path d="M11.8086 23H22.2787V24.7649C22.2787 27.6562 19.9349 30 17.0437 30C14.1524 30 11.8086 27.6562 11.8086 24.7649V23Z" fill="#7086E8"/>
<path d="M22.3086 23H32.7787V24.7649C32.7787 27.6562 30.4349 30 27.5437 30C24.6524 30 22.3086 27.6562 22.3086 24.7649V23Z" fill="#7086E8"/>
<path d="M32.8086 23H43.2787V24.7649C43.2787 27.6562 40.9349 30 38.0437 30C35.1524 30 32.8086 27.6562 32.8086 24.7649V23Z" fill="#7086E8"/>
<path d="M43.3086 23H53.7787V24.7649C53.7787 27.6562 51.4349 30 48.5437 30C45.6524 30 43.3086 27.6562 43.3086 24.7649V23Z" fill="#7086E8"/>
<path d="M53.8086 23H64.2787V24.7649C64.2787 27.6562 61.9349 30 59.0437 30C56.1524 30 53.8086 27.6562 53.8086 24.7649V23Z" fill="#7086E8"/>
<path d="M64.3086 23H74.7787V24.7649C74.7787 27.6562 72.4349 30 69.5437 30C66.6524 30 64.3086 27.6562 64.3086 24.7649V23Z" fill="#7086E8"/>
<path d="M74.8086 23H85.2787V24.7649C85.2787 27.6562 82.9349 30 80.0437 30C77.1524 30 74.8086 27.6562 74.8086 24.7649V23Z" fill="#7086E8"/>
<defs>
<clipPath id="clip0_233_1900">
<rect width="25.1914" height="20.2896" fill="white" transform="translate(30.8086 40)"/>
</clipPath>
</defs>
</svg>
