<svg width="91" height="84" viewBox="0 0 91 84" fill="none" xmlns="http://www.w3.org/2000/svg">
<path d="M37.504 75.0079C58.2168 75.0079 75.0079 58.2168 75.0079 37.504C75.0079 16.7911 58.2168 0 37.504 0C16.7911 0 0 16.7911 0 37.504C0 58.2168 16.7911 75.0079 37.504 75.0079Z" fill="#4A5DB2"/>
<path d="M61.0023 66.6776C64.3219 60.6548 66.2268 53.7468 66.2268 46.3804C66.2268 23.1114 47.3681 4.25269 24.099 4.25269C22.5973 4.25269 21.1193 4.33963 19.6571 4.4898C17.8629 5.45408 16.1556 6.56853 14.5511 7.80944C39.314 8.59192 59.1449 28.897 59.1449 53.8496C59.1449 59.5167 58.1095 64.9387 56.2363 69.9577C57.904 68.9855 59.5006 67.8948 60.9944 66.6776H61.0023Z" fill="#576CC9"/>
<g clip-path="url(#clip0_233_1939)">
<path d="M75.7889 71.341C76.5507 72.4665 77.4211 73.4686 77.966 74.6167C79.0861 76.9684 78.9524 79.3201 77.2268 81.352C75.4458 83.4469 73.1526 84.4943 70.3927 83.7742C68.9548 83.394 67.5925 82.6865 66.2327 82.0445C65.5415 81.7196 64.873 81.2841 64.2801 80.7956C60.7508 77.9151 56.6665 76.7997 52.1735 76.8375C43.7602 76.908 47.6669 76.9306 39.2536 77.0011C36.2213 77.0238 33.5068 78.0033 30.9967 79.7104C29.145 80.9668 27.2479 82.2081 25.2272 83.1649C21.7281 84.8192 18.2442 83.9102 16.2008 81.0625C14.1296 78.1543 14.9243 74.0502 17.9869 71.6204C17.3335 70.782 16.5565 70.0065 16.0419 69.09C14.6821 66.63 14.5207 64.1172 16.3547 61.8032C18.1963 59.4742 20.6787 58.4595 23.5697 59.3055C25.2877 59.8091 27.0536 60.5619 28.4462 61.6497C32.7146 64.9858 37.4826 66.3455 42.846 66.2196C51.2114 66.0333 47.2668 66.0408 55.6423 65.8948C58.0212 65.857 60.1605 64.9405 62.1509 63.6438C63.932 62.4806 65.713 61.2997 67.5622 60.2522C69.429 59.1972 71.4649 58.6307 73.5966 59.2753C76.0462 60.013 77.8575 61.5414 78.463 64.1096C79.0861 66.7484 78.1199 68.9666 76.3237 70.8852C76.1067 71.1093 75.8494 71.2881 75.7863 71.3435L75.7889 71.341Z" fill="#FEDCCA"/>
</g>
<defs>
<clipPath id="clip0_233_1939">
<rect width="76" height="25" fill="white" transform="translate(15 59.0007)"/>
</clipPath>
</defs>
</svg>
