<svg width="10" height="10" viewBox="0 0 10 10" fill="none" xmlns="http://www.w3.org/2000/svg">
<path d="M5.06239 0C4.78099 0 4.52533 0.0848554 4.33632 0.223125C4.26721 0.237476 4.19981 0.266377 4.13841 0.310603L0.224208 3.1296C-0.013975 3.30114 -0.0715045 3.63827 0.0957211 3.88259L0.384904 4.30512C0.552122 4.54945 0.880768 4.60845 1.11895 4.43693L5 1.64178L8.88105 4.43693C9.11923 4.60845 9.44788 4.54945 9.6151 4.30512L9.90428 3.88259C10.0715 3.63827 10.014 3.30114 9.77579 3.1296L5.9516 0.375432C5.7645 0.149701 5.43617 0 5.06239 0Z" fill="#42C1B6"/>
<path d="M1.59436 4.97346C1.45588 5.07492 1.3737 5.23875 1.3737 5.41331V9.45946C1.3737 9.75799 1.60961 10 1.90064 10H8.22391C8.51494 10 8.75085 9.75799 8.75085 9.45946V5.41331C8.75085 5.23875 8.66867 5.07492 8.53019 4.97346L5.36855 2.65684C5.18533 2.5226 4.93921 2.5226 4.756 2.65684L1.59436 4.97346Z" fill="#42C1B6"/>
<path d="M3.84619 7.69233C3.84619 7.26749 4.19059 6.9231 4.61542 6.9231H5.38465C5.80949 6.9231 6.15388 7.26749 6.15388 7.69233V10H3.84619V7.69233Z" fill="white"/>
</svg>
