<svg width="10" height="12" viewBox="0 0 10 12" fill="none" xmlns="http://www.w3.org/2000/svg">
<g clip-path="url(#clip0_248_4630)">
<path d="M8.77966 1.76416C8.77966 1.76416 8.77966 1.76945 8.77966 1.77122V9.52191C8.77966 10.2081 8.2306 10.7655 7.5508 10.7655H1.7516C1.7516 10.7655 1.74637 10.7655 1.74463 10.7655C1.74812 11.4481 2.29718 12.0002 2.97175 12.0002H8.77095C9.449 12.0002 9.99981 11.4446 9.99981 10.7567V3.00773C9.99981 2.32333 9.45423 1.76945 8.77966 1.76592V1.76416Z" fill="#42C1B6"/>
<path d="M7.23549 0H1.02144C0.457314 0 0 0.462786 0 1.03366V9.20241C0 9.77329 0.457314 10.2361 1.02144 10.2361H7.23549C7.79961 10.2361 8.25693 9.77329 8.25693 9.20241V1.03366C8.25693 0.462786 7.79961 0 7.23549 0Z" fill="#42C1B6"/>
</g>
<defs>
<clipPath id="clip0_248_4630">
<rect width="10" height="12" fill="white"/>
</clipPath>
</defs>
</svg>
