<svg width="10" height="8" viewBox="0 0 10 8" fill="none" xmlns="http://www.w3.org/2000/svg">
<g clip-path="url(#clip0_248_3771)">
<path d="M8.23854 6.47662C8.23027 6.32803 8.2031 6.16583 8.14875 5.98889C7.1836 3.1793 5.095 3.2156 5.095 3.2156C5.095 3.2156 3.0064 3.1793 2.04125 5.98889C1.98809 6.16583 1.95974 6.3269 1.95147 6.47662C1.9432 6.53447 1.93848 6.59232 1.93848 6.6513C1.93848 7.39652 2.56695 7.99995 3.34308 7.99995C3.60298 7.99995 3.84633 7.93076 4.05543 7.81279C4.11804 7.7799 4.17593 7.74133 4.2279 7.69823C4.23617 7.69143 4.24326 7.68575 4.25153 7.67895C4.25389 7.67668 4.25744 7.67441 4.2598 7.67214C4.58939 7.37496 4.84456 7.22524 5.095 7.23431C5.34427 7.22638 5.60062 7.37496 5.93021 7.67214C5.93257 7.67441 5.93611 7.67668 5.93848 7.67895C5.94675 7.68575 5.95383 7.69256 5.9621 7.69823C6.01408 7.74133 6.07197 7.77876 6.13458 7.81279C6.34367 7.93076 6.58585 7.99995 6.84692 7.99995C7.62306 7.99995 8.25153 7.39652 8.25153 6.6513C8.25153 6.59232 8.24562 6.53334 8.23854 6.47662Z" fill="#42C1B6"/>
<path d="M3.60934 3.12932C4.26613 3.05858 4.7194 2.32347 4.62172 1.48741C4.52405 0.651342 3.91244 0.0309206 3.25564 0.101657C2.59884 0.172393 2.14558 0.907501 2.24326 1.74357C2.34093 2.57963 2.95254 3.20005 3.60934 3.12932Z" fill="#42C1B6"/>
<path d="M1.28868 5.23043C1.90204 5.16437 2.3255 4.47949 2.23452 3.7007C2.14354 2.9219 1.57257 2.34412 0.959211 2.41018C0.345856 2.47623 -0.0776131 3.16112 0.0133672 3.93991C0.104347 4.71871 0.675324 5.29649 1.28868 5.23043Z" fill="#42C1B6"/>
<path d="M7.75551 1.64687C7.85318 0.810805 7.39992 0.0756972 6.74313 0.00496084C6.08633 -0.0657755 5.47472 0.554646 5.37704 1.39071C5.27937 2.22678 5.73263 2.96188 6.38943 3.03262C7.04623 3.10336 7.65784 2.48294 7.75551 1.64687Z" fill="#42C1B6"/>
<path d="M9.98721 3.84447C10.0782 3.06568 9.65472 2.38079 9.04137 2.31473C8.42801 2.24868 7.85703 2.82646 7.76605 3.60525C7.67507 4.38405 8.09854 5.06893 8.7119 5.13499C9.32525 5.20105 9.89623 4.62326 9.98721 3.84447Z" fill="#42C1B6"/>
<rect x="4.0166" y="4.99097" width="2.1264" height="0.680561" rx="0.340281" fill="white"/>
<rect x="4.72534" y="6.35205" width="2.04168" height="0.708801" rx="0.3544" transform="rotate(-90 4.72534 6.35205)" fill="white"/>
</g>
<defs>
<clipPath id="clip0_248_3771">
<rect width="10" height="8" fill="white"/>
</clipPath>
</defs>
</svg>
