<svg width="11" height="8" viewBox="0 0 11 8" fill="none" xmlns="http://www.w3.org/2000/svg">
<path d="M4.2136 6.11546C4.2136 6.67839 3.75725 7.13474 3.19432 7.13474C2.63139 7.13474 2.17505 6.67839 2.17505 6.11546C2.17505 5.55254 2.63139 5.09619 3.19432 5.09619C3.75725 5.09619 4.2136 5.55254 4.2136 6.11546Z" fill="#42C1B6"/>
<path fill-rule="evenodd" clip-rule="evenodd" d="M1.47632 0C0.924034 0 0.476318 0.447714 0.476318 0.999999V5.11564C0.476318 5.66792 0.924034 6.11564 1.47632 6.11564H1.49555V6.11541C1.49555 5.17719 2.25612 4.41662 3.19434 4.41662C4.13255 4.41662 4.89313 5.17719 4.89313 6.11541V6.11564H6.2522C6.2522 6.11556 6.2522 6.11549 6.2522 6.11541C6.2522 5.17719 7.01278 4.41662 7.95099 4.41662C8.88921 4.41662 9.64978 5.17719 9.64978 6.11541C9.64978 6.11547 9.64978 6.11554 9.64978 6.1156H9.9611C10.6437 6.1156 11.1256 5.4469 10.9098 4.79937L10.2174 2.72228C10.0813 2.31394 9.69917 2.03851 9.26874 2.03851H7.95099V1C7.95099 0.447715 7.50327 0 6.95099 0H1.47632Z" fill="#42C1B6"/>
<path d="M8.97019 6.11546C8.97019 6.67839 8.51384 7.13474 7.95091 7.13474C7.38798 7.13474 6.93164 6.67839 6.93164 6.11546C6.93164 5.55254 7.38798 5.09619 7.95091 5.09619C8.51384 5.09619 8.97019 5.55254 8.97019 6.11546Z" fill="#42C1B6"/>
</svg>
