<svg width="10" height="10" viewBox="0 0 10 10" fill="none" xmlns="http://www.w3.org/2000/svg">
<path d="M1.38916 3.51804C1.38916 3.25485 1.60251 3.0415 1.86569 3.0415H8.17974C8.44292 3.0415 8.65627 3.25485 8.65627 3.51804V8.87902C8.65627 9.1422 8.44292 9.35555 8.17974 9.35555H1.86569C1.60251 9.35555 1.38916 9.1422 1.38916 8.87902V3.51804Z" fill="#42C1B6"/>
<path d="M1.53557 0.656386C1.57847 0.583964 1.65639 0.539551 1.74057 0.539551H8.25967C8.34378 0.539551 8.42167 0.583902 8.46458 0.656243L9.94887 3.15803C10.0431 3.31686 9.92863 3.51787 9.74395 3.51787H0.258649C0.0740466 3.51787 -0.0404324 3.31701 0.0536488 3.15818L1.53557 0.656386Z" fill="#42C1B6"/>
<path fill-rule="evenodd" clip-rule="evenodd" d="M2.49461 3.20142H1.24728V3.20164H0V4.25888C0 4.60333 0.279226 4.88255 0.623668 4.88255C0.966085 4.88255 1.24405 4.6066 1.24731 4.26496C1.25069 4.6065 1.5286 4.88233 1.87095 4.88233C2.21539 4.88233 2.49461 4.6031 2.49461 4.25866V3.20142ZM2.49822 3.20142H3.74555V4.25866C3.74555 4.6031 3.46633 4.88233 3.12188 4.88233C2.77744 4.88233 2.49822 4.6031 2.49822 4.25866V3.20142ZM4.9964 3.20142H3.74906V4.25866C3.74906 4.6031 4.02829 4.88233 4.37273 4.88233C4.71717 4.88233 4.9964 4.6031 4.9964 4.25866V3.20142ZM4.99991 3.20142H6.24724V4.25866C6.24724 4.6031 5.96802 4.88233 5.62357 4.88233C5.27913 4.88233 4.99991 4.6031 4.99991 4.25866V3.20142ZM7.49818 3.20142H6.25084V4.25866C6.25084 4.6031 6.53007 4.88233 6.87451 4.88233C7.21896 4.88233 7.49818 4.6031 7.49818 4.25866V3.20142ZM7.50178 3.20142H8.74912V4.25866C8.74912 4.6031 8.4699 4.88233 8.12545 4.88233C7.78101 4.88233 7.50178 4.6031 7.50178 4.25866V3.20142ZM9.99997 3.20142H8.75263V4.25866C8.75263 4.6031 9.03186 4.88233 9.3763 4.88233C9.72074 4.88233 9.99997 4.6031 9.99997 4.25866V3.20142Z" fill="white"/>
<path fill-rule="evenodd" clip-rule="evenodd" d="M2.49461 2.43213H1.24728V3.20136H0V3.48938C0 3.83383 0.279226 4.11305 0.623668 4.11305C0.966049 4.11305 1.24399 3.83716 1.24731 3.49556C1.25063 3.83715 1.52857 4.11304 1.87095 4.11304C2.21539 4.11304 2.49461 3.83381 2.49461 3.48937V2.43213ZM2.49822 2.50988H3.74555V3.48937C3.74555 3.83381 3.46633 4.11304 3.12188 4.11304C2.77744 4.11304 2.49822 3.83381 2.49822 3.48937V2.50988ZM4.9964 2.50988H3.74906V3.48937C3.74906 3.83381 4.02829 4.11304 4.37273 4.11304C4.71717 4.11304 4.9964 3.83381 4.9964 3.48937V2.50988ZM4.99991 2.50988H6.24724V3.48937C6.24724 3.83381 5.96802 4.11304 5.62357 4.11304C5.27913 4.11304 4.99991 3.83381 4.99991 3.48937V2.50988ZM7.49818 2.50988H6.25084V3.48937C6.25084 3.83381 6.53007 4.11304 6.87451 4.11304C7.21896 4.11304 7.49818 3.83381 7.49818 3.48937V2.50988ZM7.50178 2.50988H8.74912V3.48937C8.74912 3.83381 8.4699 4.11304 8.12545 4.11304C7.78101 4.11304 7.50178 3.83381 7.50178 3.48937V2.50988ZM10 3.20136H8.75263V3.48933C8.75263 3.83378 9.03186 4.11301 9.37631 4.11301C9.72075 4.11301 9.99998 3.83379 9.99999 3.48935L10 3.20136Z" fill="#42C1B6"/>
</svg>
