<svg width="10" height="10" viewBox="0 0 10 10" fill="none" xmlns="http://www.w3.org/2000/svg">
<path d="M4.22338 2.47955e-05C6.55588 2.47955e-05 8.44675 1.89089 8.44675 4.2234C8.44675 6.55591 6.55588 8.44678 4.22338 8.44678C1.89087 8.44678 0 6.55591 0 4.2234C0 1.89089 1.89087 2.47955e-05 4.22338 2.47955e-05Z" fill="#42C1B6"/>
<path d="M7.17288 5.9774C7.81045 5.65861 8.2355 5.31326 8.36833 5.18043L9.96221 4.78198V8.76681H0.797119L1.19564 7.57136C0.92999 7.04004 0.637769 5.818 1.59413 5.18043C2.78957 4.38347 3.58654 5.57891 4.3835 5.9774C5.18047 6.37588 6.37592 6.37588 7.17288 5.9774Z" fill="white"/>
<path d="M1.97885 7.69718C1.87814 7.50817 1.76314 7.33991 1.69104 7.14705C1.54284 6.75205 1.56003 6.35685 1.78727 6.01515C2.02182 5.66287 2.32411 5.48652 2.68831 5.60711C2.87807 5.67079 3.05791 5.78948 3.2374 5.89717C3.32864 5.95164 3.41691 6.02474 3.4952 6.10673C3.96131 6.59023 4.50029 6.77706 5.09297 6.77004C6.20278 6.75694 5.68742 6.75372 6.79723 6.74062C7.19723 6.73636 7.55512 6.57137 7.88591 6.28413C8.12993 6.07273 8.37995 5.86386 8.64632 5.70278C9.10757 5.42429 9.56732 5.57651 9.83741 6.05473C10.1112 6.5431 10.0071 7.23287 9.60359 7.64161C9.68994 7.78241 9.79258 7.91261 9.86064 8.06654C10.0405 8.47971 10.0623 8.90193 9.82076 9.29104C9.57827 9.68268 9.25101 9.85355 8.86948 9.71182C8.64276 9.62746 8.40967 9.50122 8.22577 9.31864C7.66208 8.75867 7.03287 8.53091 6.3254 8.55286C5.22194 8.58542 5.74227 8.58356 4.63747 8.60935C4.32366 8.61605 4.04164 8.77037 3.77932 8.98857C3.5446 9.1843 3.30988 9.383 3.06615 9.55929C2.82009 9.73684 2.55165 9.83234 2.27033 9.72435C1.94706 9.60074 1.70783 9.34419 1.62748 8.91272C1.54478 8.46941 1.67181 8.09651 1.90839 7.77384C1.93697 7.73615 1.97088 7.70608 1.97919 7.69676L1.97885 7.69718Z" fill="#42C1B6"/>
</svg>
