<svg width="10" height="12" viewBox="0 0 10 12" fill="none" xmlns="http://www.w3.org/2000/svg">
<path d="M9.43087 1.91161C9.74524 1.45827 9.6745 0.846586 9.27287 0.545381C8.87124 0.244175 8.29081 0.367506 7.97644 0.820848L4.75359 5.46845C4.43922 5.92179 4.50996 6.53348 4.91159 6.83468C5.31322 7.13589 5.89365 7.01256 6.20802 6.55921L9.43087 1.91161Z" fill="#42C1B6"/>
<path fill-rule="evenodd" clip-rule="evenodd" d="M6.56903 6.1079L5.06006 4.97623C4.78294 4.7684 4.39826 4.83068 4.20086 5.11535L4.06862 5.30606C3.944 5.44794 3.72784 5.63982 3.30802 5.45442L3.30888 5.45318C2.57071 5.13614 1.65081 5.42655 1.11554 6.19845C0.499119 7.08738 0.626727 8.27693 1.39636 8.85412C2.166 9.43131 3.29128 9.17949 3.90684 8.2918L3.91798 8.27558L3.92775 8.2829C3.31317 9.17045 3.43894 10.3595 4.20822 10.9364C4.97785 11.5136 6.10227 11.263 6.71869 10.3741C7.25396 9.6022 7.22848 8.60279 6.70614 7.9745L6.70649 7.97666C6.37315 7.58365 6.53847 7.29055 6.62899 7.13006L6.629 7.13005L6.62901 7.13002L6.62903 7.12999C6.63778 7.11449 6.64582 7.10023 6.65265 7.08724L6.71339 6.99964C6.91079 6.71497 6.84616 6.31573 6.56903 6.1079ZM4.68909 10.243C5.12687 10.5713 5.76547 10.4283 6.11544 9.9236C6.46542 9.4189 6.39425 8.74361 5.95647 8.4153C5.51869 8.08699 4.88009 8.22997 4.53011 8.73467C4.18014 9.23936 4.25131 9.91465 4.68909 10.243ZM3.30323 7.83916C2.95325 8.34385 2.31465 8.48684 1.87688 8.15852C1.4391 7.83021 1.36793 7.15492 1.7179 6.65023C2.06788 6.14554 2.70648 6.00255 3.14426 6.33086C3.58203 6.65918 3.65321 7.33446 3.30323 7.83916Z" fill="#42C1B6"/>
</svg>
