<svg width="50" height="69" viewBox="0 0 50 69" fill="none" xmlns="http://www.w3.org/2000/svg">
<rect width="50" height="69" rx="5" fill="#FFDCCA"/>
<rect x="6" y="7" width="10" height="10" rx="2" fill="#FCB794"/>
<rect x="20" y="7" width="10" height="10" rx="2" fill="#FCB794"/>
<rect x="34" y="7" width="10" height="10" rx="2" fill="#FCB794"/>
<rect x="6" y="22" width="10" height="10" rx="2" fill="#FCB794"/>
<rect x="20" y="22" width="10" height="10" rx="2" fill="#FCB794"/>
<rect x="34" y="22" width="10" height="10" rx="2" fill="#FCB794"/>
<rect x="6" y="37" width="10" height="10" rx="2" fill="#FCB794"/>
<rect x="20" y="37" width="10" height="10" rx="2" fill="#FCB794"/>
<rect x="34" y="37" width="10" height="10" rx="2" fill="#FCB794"/>
<rect x="6" y="52" width="10" height="10" rx="2" fill="#FCB794"/>
<rect x="20" y="52" width="10" height="10" rx="2" fill="#FCB794"/>
<rect x="34" y="52" width="10" height="10" rx="2" fill="#FCB794"/>
<rect x="18" y="23.915" width="4.02073" height="9.52683" rx="2.01036" transform="rotate(-43 18 23.915)" fill="#4B64D9"/>
<rect width="4.02073" height="15.2323" rx="2.01036" transform="matrix(-0.731354 -0.681998 -0.681998 0.731354 35.438 19.7421)" fill="#4B64D9"/>
</svg>
