<svg width="78" height="85" viewBox="0 0 78 85" fill="none" xmlns="http://www.w3.org/2000/svg">
<rect x="14.1692" y="15.0938" width="50" height="69" rx="5" fill="#FFDCCA"/>
<rect x="20.169" y="21.0936" width="38" height="51" rx="3" fill="#FCB794"/>
<rect x="26.1693" y="78.0939" width="26" height="2" rx="1" fill="#F89766"/>
<g clip-path="url(#clip0_233_1580)">
<path d="M59.7538 6.22418C59.7538 6.22418 59.7374 6.22458 59.7292 6.22478C58.7705 6.24823 58.0194 7.05195 58.0431 8.0186C58.052 8.38213 58.175 8.71807 58.3785 8.99417C58.5222 9.17252 59.0342 9.65602 60.3067 9.72411C60.5452 9.75135 60.7013 9.76407 60.7095 9.76387C64.7618 10.1773 68.0437 13.2881 68.7245 17.3223C68.7245 17.3223 68.7251 17.3471 68.7255 17.3636C68.7355 17.4377 68.7457 17.5202 68.7557 17.5943C68.7856 17.8085 68.8258 18.1134 68.8659 18.4101C68.9219 18.6898 69.0827 19.2314 69.5763 19.6327C69.8682 19.8323 70.2155 19.956 70.5925 19.9468C71.5512 19.9234 72.3105 19.1195 72.2868 18.1528C71.9347 11.4652 66.4276 6.20981 59.7538 6.22418Z" fill="#4B73D9"/>
</g>
<g clip-path="url(#clip1_233_1580)">
<path d="M67.3687 0.2336C67.3687 0.2336 67.3559 0.233913 67.3495 0.234069C66.6013 0.252362 66.0152 0.879577 66.0337 1.63394C66.0406 1.91763 66.1366 2.17979 66.2954 2.39526C66.4076 2.53445 66.8071 2.91176 67.8002 2.9649C67.9863 2.98615 68.1081 2.99608 68.1145 2.99592C71.2769 3.31859 73.838 5.74621 74.3693 8.89441C74.3693 8.89441 74.3698 8.91375 74.3701 8.92664C74.3779 8.98451 74.3859 9.04883 74.3937 9.10671C74.417 9.27387 74.4484 9.51181 74.4796 9.74329C74.5234 9.96157 74.6489 10.3843 75.034 10.6974C75.2618 10.8532 75.5329 10.9498 75.8271 10.9426C76.5752 10.9243 77.1678 10.2969 77.1493 9.54254C76.8745 4.32362 72.5768 0.222385 67.3687 0.2336Z" fill="#4B73D9"/>
</g>
<g clip-path="url(#clip2_233_1580)">
<path d="M17.4356 6.22418C17.4356 6.22418 17.452 6.22458 17.4602 6.22478C18.4189 6.24823 19.17 7.05195 19.1464 8.0186C19.1375 8.38213 19.0145 8.71807 18.811 8.99417C18.6672 9.17252 18.1552 9.65602 16.8827 9.72411C16.6443 9.75135 16.4882 9.76407 16.48 9.76387C12.4277 10.1773 9.14574 13.2881 8.46496 17.3223C8.46496 17.3223 8.46436 17.3471 8.46395 17.3636C8.45394 17.4377 8.44372 17.5202 8.43371 17.5943C8.40388 17.8085 8.36363 18.1134 8.32358 18.4101C8.26754 18.6898 8.10671 19.2314 7.61315 19.6327C7.3213 19.8323 6.97391 19.956 6.59697 19.9468C5.63824 19.9234 4.87898 19.1195 4.90261 18.1528C5.25471 11.4652 10.7619 6.20981 17.4356 6.22418Z" fill="#4B73D9"/>
</g>
<g clip-path="url(#clip3_233_1580)">
<path d="M9.82074 0.2336C9.82074 0.2336 9.83353 0.233913 9.83993 0.234069C10.5881 0.252362 11.1742 0.879577 11.1558 1.63394C11.1489 1.91763 11.0529 2.17979 10.894 2.39526C10.7819 2.53445 10.3823 2.91176 9.38925 2.9649C9.20317 2.98615 9.08135 2.99608 9.07496 2.99592C5.9126 3.31859 3.35142 5.74621 2.82015 8.89441C2.82015 8.89441 2.81968 8.91375 2.81936 8.92664C2.81155 8.98451 2.80358 9.04883 2.79576 9.10671C2.77248 9.27387 2.74107 9.51181 2.70981 9.74329C2.66609 9.96157 2.54058 10.3843 2.15541 10.6974C1.92765 10.8532 1.65655 10.9498 1.36239 10.9426C0.614215 10.9243 0.0216943 10.2969 0.0401387 9.54254C0.314909 4.32362 4.61262 0.222385 9.82074 0.2336Z" fill="#4B73D9"/>
</g>
<defs>
<clipPath id="clip0_233_1580">
<rect width="14" height="14" fill="white" transform="translate(58.0002 6.26706) rotate(-1.40062)"/>
</clipPath>
<clipPath id="clip1_233_1580">
<rect width="10.9254" height="10.9254" fill="white" transform="translate(66.0002 0.267059) rotate(-1.40062)"/>
</clipPath>
<clipPath id="clip2_233_1580">
<rect width="14" height="14" fill="white" transform="matrix(-0.999701 -0.024443 -0.024443 0.999701 19.1892 6.26706)"/>
</clipPath>
<clipPath id="clip3_233_1580">
<rect width="10.9254" height="10.9254" fill="white" transform="matrix(-0.999701 -0.024443 -0.024443 0.999701 11.1892 0.267059)"/>
</clipPath>
</defs>
</svg>
